<?xml version="1.0" standalone="no"?>
<!DOCTYPE svg PUBLIC "-//W3C//DTD SVG 20010904//EN"
 "http://www.w3.org/TR/2001/REC-SVG-20010904/DTD/svg10.dtd">
<svg version="1.0" xmlns="http://www.w3.org/2000/svg"
 width="512.000000pt" height="512.000000pt" viewBox="0 0 512.000000 512.000000"
 preserveAspectRatio="xMidYMid meet">
<metadata>
Created by potrace 1.11, written by Peter Selinger 2001-2013
</metadata>
<g transform="translate(0.000000,512.000000) scale(0.100000,-0.100000)"
fill="#000000" stroke="none">
<path d="M837 5112 c-2 -4 -3 -1154 -3 -2557 l1 -2550 40 1 c62 2 154 11 225
23 36 5 85 13 110 16 25 3 56 8 70 10 43 7 156 20 250 30 25 3 65 7 90 10 25
3 70 7 100 10 119 8 246 18 265 20 11 1 27 3 35 4 13 1 15 135 15 1156 0 635
1 1155 3 1155 2 0 12 -21 24 -47 11 -27 36 -82 55 -123 19 -41 73 -160 120
-264 81 -182 108 -240 179 -394 19 -40 34 -74 34 -77 0 -2 23 -51 50 -110 28
-59 50 -108 50 -110 0 -2 15 -36 34 -77 37 -80 187 -412 378 -837 l124 -274
45 -2 c74 -5 208 -15 314 -25 55 -6 125 -12 155 -15 82 -8 179 -21 230 -30 14
-2 48 -7 75 -10 28 -3 77 -10 110 -15 78 -12 125 -18 205 -24 l65 -6 -1 2543
c-1 1398 -2 2547 -3 2553 -2 15 -1189 15 -1194 0 -2 -6 -3 -554 -3 -1218 1
-665 0 -1208 -2 -1208 -2 0 -16 28 -31 63 -16 34 -38 82 -49 107 -57 124 -132
292 -132 295 0 2 -22 51 -50 110 -28 59 -50 108 -50 110 0 3 -16 38 -35 80
-19 41 -51 109 -70 150 -19 42 -35 77 -35 79 0 3 -15 37 -34 78 -19 40 -78
170 -131 288 -53 118 -105 233 -115 255 -10 22 -49 108 -85 190 -37 83 -76
170 -87 195 -32 70 -73 160 -98 215 -12 28 -37 83 -56 123 -19 39 -34 76 -34
82 0 5 -10 12 -22 14 -13 3 -259 4 -548 3 -289 -1 -537 1 -552 5 -15 3 -29 3
-31 0z"/>
</g>
</svg>
